<svg xmlns="http://www.w3.org/2000/svg" xmlnsSe="http://svg-edit.googlecode.com" xmlnsXlink="http://www.w3.org/1999/xlink" xmlnsDc="http://purl.org/dc/elements/1.1/" xmlnsCc="http://creativecommons.org/ns#" xmlnsRdf="http://www.w3.org/1999/02/22-rdf-syntax-ns#" xmlnsInkscape="http://www.inkscape.org/namespaces/inkscape" width="auto" height="auto" viewBox="210 50 300 250" style="">                                    <title>melty</title>                                    <!-- Created with Vector Paint - http://www.vectorpaint.yaks.com/ https://chrome.google.com/webstore/detail/hnbpdiengicdefcjecjbnjnoifekhgdo -->
  <g class="currentLayer" style="">
    <title>Layer 1</title>
    <g class="melty-all">

      <path class="melty-feet" fill="#ffffff" fill-opacity="1" stroke="#000000" stroke-opacity="1" stroke-width="2" stroke-dasharray="none" stroke-linejoin="round" stroke-linecap="butt" stroke-dashoffset="" fill-rule="nonzero" opacity="1" marker-start="" marker-mid="" marker-end="" d="M301.25,226 C301.25,200.03314208984375 328.3245849609375,179 361.75,179 C395.1754150390625,179 422.25,200.03314208984375 422.25,226 C422.25,251.96685791015625 395.1754150390625,273 361.75,273 C328.3245849609375,273 301.25,251.96685791015625 301.25,226 z" id="svg_8"/>

      <g class="melty-body" id="svg_7">
        <path class="melty-body-right-arm" fill="#4a90d6" fill-opacity="1" stroke="#000000" stroke-opacity="1" stroke-width="2" stroke-dasharray="none" stroke-linejoin="round" stroke-linecap="butt" stroke-dashoffset="" fill-rule="nonzero" opacity="1" marker-start="" marker-mid="" marker-end="" d="M446.7000216245651,108 L399.2000216245651,156.75 " id="svg_3"/>
        <path class="melty-body-left-arm" fill="#4a90d6" fill-opacity="1" stroke="#000000" stroke-opacity="1" stroke-width="2" stroke-dasharray="none" stroke-linejoin="round" stroke-linecap="butt" stroke-dashoffset="" fill-rule="nonzero" opacity="1" marker-start="" marker-mid="" marker-end="" d="M262.95001220703125,111.75 L319.20001220703125,160.5 " id="svg_1"/>
        <path class="melty-body-body" fill="#ffffff" fill-opacity="1" stroke="#000000" stroke-opacity="1" stroke-width="2" stroke-dasharray="none" stroke-linejoin="round" stroke-linecap="butt" stroke-dashoffset="" fill-rule="nonzero" opacity="1" marker-start="" marker-mid="" marker-end="" d="M319.5,162.16666162014008 C319.5,140.6196950674057 337.4005432128906,123.1666692495346 359.5,123.1666692495346 C381.5994567871094,123.1666692495346 399.5,140.6196950674057 399.5,162.16666162014008 C399.5,183.71362817287445 381.5994567871094,201.16666162014008 359.5,201.16666162014008 C337.4005432128906,201.16666162014008 319.5,183.71362817287445 319.5,162.16666162014008 z" id="svg_6"/>
      </g>

      <g class="melty-head" id="svg_5">
        <path class="melty-head-head" fill="#ffffff" fill-opacity="1" stroke="#000000" stroke-opacity="1" stroke-width="2" stroke-dasharray="none" stroke-linejoin="round" stroke-linecap="butt" stroke-dashoffset="" fill-rule="nonzero" opacity="1" marker-start="" marker-mid="" marker-end="" d="M332,107.5 C332,93.13536071777344 343.6353454589844,81.5 358,81.5 C372.3646545410156,81.5 384,93.13536071777344 384,107.5 C384,121.86463928222656 372.3646545410156,133.5 358,133.5 C343.6353454589844,133.5 332,121.86463928222656 332,107.5 z" id="svg_4"/>
        <path class="melty-head-mouth" fill="#fbc1c6" fill-opacity="1" stroke="#000000" style="color: rgb(0, 0, 0);" stroke-width="2" stroke-dasharray="none" stroke-linejoin="round" stroke-linecap="butt" stroke-dashoffset="" fill-rule="nonzero" opacity="1" marker-start="" marker-mid="" marker-end="" id="svg_12" d="M340.2021280527115,146.9711456298828 L353.7028604745865,109.05229949951172 L367.2035928964615,146.9711456298828 z" transform="rotate(178.212, 353.703, 128.012)" stroke-opacity="1"/>
        <path class="melty-head-left-eye" fill="#000000" fill-opacity="1" stroke="#000000" stroke-opacity="1" stroke-width="2" stroke-dasharray="none" stroke-linejoin="round" stroke-linecap="butt" stroke-dashoffset="" fill-rule="nonzero" opacity="1" marker-start="" marker-mid="" marker-end="" d="M341,104.25 C341,100.38259887695312 344.1325988769531,97.25 348,97.25 C351.8674011230469,97.25 355,100.38259887695312 355,104.25 C355,108.11740112304688 351.8674011230469,111.25 348,111.25 C344.1325988769531,111.25 341,108.11740112304688 341,104.25 z" id="svg_2"/>
        <path class="melty-head-right-eye" fill="#000000" fill-opacity="1" stroke="#000000" stroke-opacity="1" stroke-width="2" stroke-dasharray="none" stroke-linejoin="round" stroke-linecap="butt" stroke-dashoffset="" fill-rule="nonzero" opacity="1" marker-start="" marker-mid="" marker-end="" d="M363.5,96.75 C363.5,92.88259887695312 366.6325988769531,89.75 370.5,89.75 C374.3674011230469,89.75 377.5,92.88259887695312 377.5,96.75 C377.5,100.61740112304688 374.3674011230469,103.75 370.5,103.75 C366.6325988769531,103.75 363.5,100.61740112304688 363.5,96.75 z" id="svg_9"/>
      </g>

    </g>
  </g>
</svg>
